<?xml version="1.0" encoding="UTF-8" standalone="no"?>
<!-- Created with Inkscape (http://www.inkscape.org/) -->

<svg
   version="1.1"
   id="svg2"
   width="3684.3733"
   height="2956.2932"
   viewBox="0 0 3684.3733 2956.2932"
   xmlns="http://www.w3.org/2000/svg"
   xmlns:svg="http://www.w3.org/2000/svg">
  <defs
     id="defs6">
    <clipPath
       clipPathUnits="userSpaceOnUse"
       id="clipPath16">
      <path
         d="M 0,2217.222 H 2763.276 V 0 H 0 Z"
         id="path14" />
    </clipPath>
    <linearGradient
       x1="0"
       y1="0"
       x2="1"
       y2="0"
       gradientUnits="userSpaceOnUse"
       gradientTransform="matrix(-500.54352,-775.49512,-779.1178,498.1655,1277.806,2091.6667)"
       spreadMethod="pad"
       id="linearGradient70">
      <stop
         style="stop-opacity:1;stop-color:#002b53"
         offset="0"
         id="stop64" />
      <stop
         style="stop-opacity:1;stop-color:#00b6f0"
         offset="0.7124"
         id="stop66" />
      <stop
         style="stop-opacity:1;stop-color:#00b6f0"
         offset="1"
         id="stop68" />
    </linearGradient>
    <linearGradient
       x1="0"
       y1="0"
       x2="1"
       y2="0"
       gradientUnits="userSpaceOnUse"
       gradientTransform="matrix(-772.25787,503.50552,503.50552,772.25787,1937.9462,1569.9202)"
       spreadMethod="pad"
       id="linearGradient92">
      <stop
         style="stop-opacity:1;stop-color:#db1a21"
         offset="0"
         id="stop86" />
      <stop
         style="stop-opacity:1;stop-color:#fece08"
         offset="0.7124"
         id="stop88" />
      <stop
         style="stop-opacity:1;stop-color:#fece08"
         offset="1"
         id="stop90" />
    </linearGradient>
    <linearGradient
       x1="0"
       y1="0"
       x2="1"
       y2="0"
       gradientUnits="userSpaceOnUse"
       gradientTransform="matrix(771.12683,-505.38623,-505.38623,-771.12683,759.66272,1434.4922)"
       spreadMethod="pad"
       id="linearGradient114">
      <stop
         style="stop-opacity:1;stop-color:#db1a21"
         offset="0"
         id="stop108" />
      <stop
         style="stop-opacity:1;stop-color:#fece08"
         offset="0.7124"
         id="stop110" />
      <stop
         style="stop-opacity:1;stop-color:#fece08"
         offset="1"
         id="stop112" />
    </linearGradient>
    <linearGradient
       x1="0"
       y1="0"
       x2="1"
       y2="0"
       gradientUnits="userSpaceOnUse"
       gradientTransform="matrix(502.14771,773.23962,773.23962,-502.14771,1418.2731,911.7442)"
       spreadMethod="pad"
       id="linearGradient136">
      <stop
         style="stop-opacity:1;stop-color:#002b53"
         offset="0"
         id="stop130" />
      <stop
         style="stop-opacity:1;stop-color:#00b6f0"
         offset="0.7124"
         id="stop132" />
      <stop
         style="stop-opacity:1;stop-color:#00b6f0"
         offset="1"
         id="stop134" />
    </linearGradient>
  </defs>
  <g
     id="g8"
     transform="matrix(1.3333333,0,0,-1.3333333,0,2956.2933)">
    <g
       id="g10">
      <g
         id="g12"
         clip-path="url(#clipPath16)">
        <g
           id="g18"
           transform="translate(482.7314,565.6644)">
          <path
             d="M 0,0 68.465,35.944 V -65.042 c 0,0 61.619,6.847 61.619,0 V -114.68 H 65.042 v -191.702 c 0,0 13.693,-47.926 65.042,-17.116 v -56.484 c 0,0 -102.698,-44.502 -130.084,66.754 z"
             style="fill:#000000;fill-opacity:1;fill-rule:nonzero;stroke:none"
             id="path20" />
        </g>
        <g
           id="g22"
           transform="translate(868.4194,243.8783)">
          <path
             d="m 0,0 c -120.956,-34.233 -140.354,9.024 -140.354,34.232 0,25.208 18.257,65.697 140.354,45.643 z m -10.841,256.744 c -116.39,41.079 -179.721,-34.232 -179.721,-34.232 l 46.214,-37.657 c 15.405,41.08 104.41,22.957 104.41,22.957 45.072,-13.828 37.655,-80.011 37.655,-80.011 -147.2,22.252 -191.702,-40.508 -191.702,-40.508 -29.098,-54.772 0,-100.986 0,-100.986 32.521,-71.889 136.93,-53.293 136.93,-53.293 140.354,22.018 109.544,32.753 114.679,32.753 V 68.465 c 10.841,185.997 -68.465,188.279 -68.465,188.279"
             style="fill:#000000;fill-opacity:1;fill-rule:nonzero;stroke:none"
             id="path24" />
        </g>
        <g
           id="g26"
           transform="translate(1150.267,512.8831)">
          <path
             d="m 0,0 v -59.046 c 0,0 -81.017,2.282 -86.723,-20.539 v -256.406 h -65.042 v 303.19 c 0,0 25.105,30.228 151.765,32.801"
             style="fill:#000000;fill-opacity:1;fill-rule:nonzero;stroke:none"
             id="path28" />
        </g>
        <g
           id="g30"
           transform="translate(1068.1088,573.6517)">
          <path
             d="m 0,0 h 144.918 v -396.76 h 62.394 V 0 H 351.455 V 65.042 H 0 Z"
             style="fill:#000000;fill-opacity:1;fill-rule:nonzero;stroke:none"
             id="path32" />
        </g>
        <path
           d="m 1356.804,507.469 h 62.76 V 176.892 h -62.76 z"
           style="fill:#000000;fill-opacity:1;fill-rule:nonzero;stroke:none"
           id="path34" />
        <g
           id="g36"
           transform="translate(1504.0043,475.5179)">
          <path
             d="m 0,0 v -300.788 h 66.183 v 246.017 c 0,0 -10.27,22.821 13.693,25.103 0,0 99.274,34.571 116.391,-38.058 v -233.062 h 67.324 v 239.17 c 0,0 -4.565,18.258 7.987,22.821 0,0 117.532,47.123 119.815,-28.929 v -233.062 h 67.324 v 233.062 c 0,0 -6.847,177.271 -229.359,67.726 0,0 -55.913,83.3 -229.358,0"
             style="fill:#000000;fill-opacity:1;fill-rule:nonzero;stroke:none"
             id="path38" />
        </g>
        <g
           id="g40"
           transform="translate(2133.314,452.1263)">
          <path
             d="M 0,0 C 83.299,17.116 94.14,-37.086 94.14,-37.086 97.563,-95.281 47.354,-91.857 47.354,-91.857 l -92.998,0.57 C -50.208,-3.994 0,0 0,0 m -3.994,-227.647 c -47.926,13.693 -42.791,88.434 -42.791,88.434 l 113.539,-3.994 c 25.674,2.853 41.079,13.693 41.079,13.693 85.581,52.491 33.661,139.213 33.661,139.213 -68.465,97.563 -199.69,26.816 -199.69,26.816 -58.766,-24.534 -46.785,-167.454 -46.785,-167.454 -0.157,-166.029 138.643,-146.457 138.643,-146.457 76.452,2.162 104.677,44.345 104.677,44.345 l -36.212,36.213 C 66.753,-246.475 -3.994,-227.647 -3.994,-227.647"
             style="fill:#000000;fill-opacity:1;fill-rule:nonzero;stroke:none"
             id="path42" />
        </g>
        <g
           id="g44"
           transform="translate(424.5361,310.1937)">
          <path
             d="m 0,0 c 0,-41.244 -14.991,-73.774 -44.96,-97.588 -29.983,-23.814 -69.036,-35.714 -117.165,-35.714 -34.622,0 -64.598,4.568 -89.928,13.716 -25.337,9.134 -48.559,24.554 -69.667,46.245 l 45.599,45.281 c 28.707,-28.925 67.128,-43.368 115.265,-43.368 29.546,0 52.456,6.062 68.71,18.172 16.253,12.123 24.386,29.233 24.386,51.343 0,20.839 -5.921,36.565 -17.737,47.209 -10.13,9.344 -26.599,15.726 -49.398,19.135 l -53.198,7.654 c -36.73,5.098 -65.229,17.221 -85.497,36.356 -21.953,20.825 -32.93,49.751 -32.93,86.743 0,39.974 13.507,72.182 40.53,96.638 27.014,24.443 63.751,36.678 110.196,36.678 56.575,0 103.234,-17.222 139.963,-51.664 l -43.698,-43.382 c -24.491,23.381 -57.213,35.085 -98.165,35.085 -25.753,0 -45.911,-6.593 -60.479,-19.777 -14.569,-13.185 -21.849,-30.198 -21.849,-51.022 0,-17.864 5.699,-31.894 17.099,-42.104 11.816,-10.629 28.707,-17.655 50.667,-21.048 l 51.298,-7.654 C -83.389,120.97 -55.313,109.712 -36.729,93.133 -12.246,71.442 0,40.394 0,0"
             style="fill:#000000;fill-opacity:1;fill-rule:nonzero;stroke:none"
             id="path46" />
        </g>
        <g
           id="g48"
           transform="translate(2593.1763,276.3324)">
          <path
             d="m 0,0 c 0,-32.394 -11.901,-57.421 -35.717,-75.097 -23.816,-17.674 -54.866,-26.506 -93.137,-26.506 -56.59,0 -99.943,15.354 -130.071,46.076 l 40.919,42.274 c 21.168,-22.306 50.881,-33.444 89.152,-33.444 19.952,0 36.239,3.787 48.862,11.36 12.609,7.573 18.922,18.504 18.922,32.821 0,22.72 -13.841,35.337 -41.521,37.867 l -49.464,4.408 c -61.07,5.472 -91.598,34.922 -91.598,88.362 0,30.293 11.085,54.159 33.283,71.635 22.184,17.454 49.972,26.187 83.348,26.187 50.079,0 88.336,-11.995 114.813,-35.979 l -39.087,-41.017 c -17.918,15.562 -43.352,23.342 -76.328,23.342 -17.918,0 -31.759,-3.786 -41.533,-11.359 -9.762,-7.574 -14.656,-17.455 -14.656,-29.658 0,-21.876 14.254,-34.079 42.751,-36.608 l 48.847,-4.408 C -30.743,84.783 0,54.698 0,0"
             style="fill:#000000;fill-opacity:1;fill-rule:nonzero;stroke:none"
             id="path50" />
        </g>
      </g>
    </g>
    <g
       id="g52">
      <g
         id="g54">
        <g
           id="g60">
          <g
             id="g62">
            <path
               d="m 1188.88,2130.069 c 0,0 -18.933,-0.946 -43.463,-20.088 v 0 L 1037.957,2000.15 877.226,1834.953 766.164,1719.684 c 0,0 -48.348,-41.792 -48.175,-77.019 v 0 l 1.429,-289.506 c -10e-4,0.402 0.098,59.279 113.896,92.699 v 0 l 161.709,59.062 134.543,46.733 31.257,10.994 c 0,0 72.482,24.747 103.103,72.774 v 0 c 0,0 13.497,23.553 34.09,80.563 v 0 l 51.898,150.207 -51.514,139.761 c 0,0 -28.828,124.94 -99.388,124.955 v 0 c -3.29,0 -6.658,-0.27 -10.132,-0.838 M 719.418,1353.157 v 0 c 0,0 0,0 0,0"
               style="fill:url(#linearGradient70);stroke:none"
               id="path72" />
          </g>
        </g>
      </g>
    </g>
    <g
       id="g74">
      <g
         id="g76">
        <g
           id="g82">
          <g
             id="g84">
            <path
               d="m 1203.021,2130.685 v 0 c 0,0 0,0 0,0 v 0 c 0,0 0,0 0,0 m 91.996,-113.915 58.011,-161.461 45.859,-134.319 10.791,-31.207 c 0,0 24.276,-72.36 72.129,-103.181 v 0 c 0,0 23.477,-13.603 80.389,-34.496 v 0 l 149.96,-52.702 140.205,50.367 c 0,0 136.553,31.39 124.942,108.248 v 0 c 0,0 1.841,18.075 -19.808,43.426 v 0 l -109.183,107.768 -164.227,161.202 -114.6,111.394 c 0,0 -41.494,48.437 -76.749,48.501 v 0 l -289.715,0.375 c 0.094,0 59.235,-0.047 91.996,-113.915"
               style="fill:url(#linearGradient92);stroke:none"
               id="path94" />
          </g>
        </g>
      </g>
    </g>
    <g
       id="g96">
      <g
         id="g98">
        <g
           id="g104">
          <g
             id="g106">
            <path
               d="m 845.296,1454.438 c 0,0 -136.629,-31.066 -125.2,-107.951 v 0 c 0,0 -1.883,-18.071 19.705,-43.472 v 0 l 108.927,-108.028 163.843,-161.592 114.333,-111.667 c 0,0 41.38,-48.535 76.634,-48.683 v 0 l 289.713,-1.216 c 0,0 -59.208,0.249 -91.724,114.285 v 0 l -57.628,161.598 -45.538,134.429 -10.716,31.232 c 0,0 -24.103,72.417 -71.884,103.353 v 0 c 0,0 -23.446,13.657 -80.307,34.688 v 0 l -149.834,53.057 z"
               style="fill:url(#linearGradient114);stroke:none"
               id="path116" />
          </g>
        </g>
      </g>
    </g>
    <g
       id="g118">
      <g
         id="g120">
        <g
           id="g126">
          <g
             id="g128">
            <path
               d="m 1863.956,1555.484 -161.356,-58.306 -134.237,-46.102 -31.186,-10.847 c 0,0 -72.316,-24.407 -103.05,-72.315 v 0 c 0,0 -13.561,-23.504 -34.351,-80.452 v 0 l -52.429,-150.056 50.621,-140.113 c 0,0 31.639,-136.497 108.475,-124.746 v 0 c 0,0 18.079,-1.808 43.389,19.887 v 0 l 107.571,109.378 160.903,164.52 111.187,114.802 c 0,0 48.361,41.582 48.361,76.836 v 0 289.717 c 0,0 0,-59.21 -113.898,-92.203"
               style="fill:url(#linearGradient136);stroke:none"
               id="path138" />
          </g>
        </g>
      </g>
    </g>
  </g>
</svg>
